<?xml version="1.0" encoding="UTF-8" standalone="no"?>
<!-- Created with Inkscape (http://www.inkscape.org/) -->

<svg
   width="161.15529mm"
   height="161.55222mm"
   viewBox="0 0 161.15529 161.55222"
   version="1.1"
   id="svg5"
   sodipodi:docname="biote-half.svg"
   inkscape:version="1.2.1 (9c6d41e4, 2022-07-14)"
   xmlns:inkscape="http://www.inkscape.org/namespaces/inkscape"
   xmlns:sodipodi="http://sodipodi.sourceforge.net/DTD/sodipodi-0.dtd"
   xmlns="http://www.w3.org/2000/svg"
   xmlns:svg="http://www.w3.org/2000/svg">
  <sodipodi:namedview
     id="namedview45"
     pagecolor="#ffffff"
     bordercolor="#000000"
     borderopacity="0.25"
     inkscape:showpageshadow="2"
     inkscape:pageopacity="0.0"
     inkscape:pagecheckerboard="0"
     inkscape:deskcolor="#d1d1d1"
     inkscape:document-units="mm"
     showgrid="false"
     inkscape:zoom="0.2102413"
     inkscape:cx="-259.22595"
     inkscape:cy="280.62992"
     inkscape:window-width="1280"
     inkscape:window-height="456"
     inkscape:window-x="0"
     inkscape:window-y="25"
     inkscape:window-maximized="0"
     inkscape:current-layer="layer1" />
  <defs
     id="defs2" />
  <g
     id="g314">
    <g
       id="layer1"
       transform="translate(-30.767508,-73.735907)">
      <path
         id="rect1762"
         style="fill:#82c995;stroke:#0d9300;stroke-width:0"
         d="m 73.984177,134.45776 h 14 c 1.662,0 3,1.338 3,3 v 14 c 0,1.662 -1.338,3 -3,3 h -14 c -1.662,0 -3,-1.338 -3,-3 v -14 c 0,-1.662 1.338,-3 3,-3 z m -20.108334,20.10839 h 14 c 1.662,0 3,1.338 3,3 v 14 c 0,1.662 -1.338,3 -3,3 h -14 c -1.662,0 -3,-1.338 -3,-3 v -14 c 0,-1.662 1.338,-3 3,-3 z M 33.767508,134.45778 h 14 c 1.662,0 3,1.338 3,3 v 14 c 0,1.662 -1.338,3 -3,3 h -14 c -1.662,0 -3,-1.338 -3,-3 v -14 c 0,-1.662 1.338,-3 3,-3 z m 40.216669,60.3251 h 14 c 1.662,0 3,1.338 3,3 v 14 c 0,1.662 -1.338,3 -3,3 h -14 c -1.662,0 -3,-1.338 -3,-3 v -14 c 0,-1.662 1.338,-3 3,-3 z M 94.092499,174.67451 H 108.0925 c 1.662,0 3,1.338 3,3 v 14 c 0,1.662 -1.338,3 -3,3 H 94.092499 c -1.662,0 -3,-1.338 -3,-3 v -14 c 0,-1.662 1.338,-3 3,-3 z m -40.216656,40.21674 h 14 c 1.662,0 3,1.338 3,3 v 14 c 0,1.662 -1.338,3 -3,3 h -14 c -1.662,0 -3,-1.338 -3,-3 v -14 c 0,-1.662 1.338,-3 3,-3 z M 33.767508,114.34943 h 14 c 1.662,0 3,1.338 3,3 v 14 c 0,1.662 -1.338,3 -3,3 h -14 c -1.662,0 -3,-1.338 -3,-3 v -14 c 0,-1.662 1.338,-3 3,-3 z M 53.875843,94.241104 h 14 c 1.662,0 3,1.338 3,3 V 111.2411 c 0,1.662 -1.338,3 -3,3 h -14 c -1.662,0 -3,-1.338 -3,-3 V 97.241104 c 0,-1.662 1.338,-3 3,-3 z M 94.092499,74.132782 H 108.0925 c 1.662,0 3,1.338 3,3 v 14 c 0,1.662 -1.338,3 -3,3 H 94.092499 c -1.662,0 -3,-1.338 -3,-3 v -14 c 0,-1.662 1.338,-3 3,-3 z m -20.108322,0 h 14 c 1.662,0 3,1.338 3,3 v 14 c 0,1.662 -1.338,3 -3,3 h -14 c -1.662,0 -3,-1.338 -3,-3 v -14 c 0,-1.662 1.338,-3 3,-3 z M 53.875843,194.78288 h 14 c 1.662,0 3,1.338 3,3 v 14 c 0,1.662 -1.338,3 -3,3 h -14 c -1.662,0 -3,-1.338 -3,-3 v -14 c 0,-1.662 1.338,-3 3,-3 z m 20.108334,-20.10837 h 14 c 1.662,0 3,1.338 3,3 v 14 c 0,1.662 -1.338,3 -3,3 h -14 c -1.662,0 -3,-1.338 -3,-3 v -14 c 0,-1.662 1.338,-3 3,-3 z m 0,-80.433406 h 14 c 1.662,0 3,1.338 3,3 V 111.2411 c 0,1.662 -1.338,3 -3,3 h -14 c -1.662,0 -3,-1.338 -3,-3 V 97.241104 c 0,-1.662 1.338,-3 3,-3 z m 20.108322,0 H 108.0925 c 1.662,0 3,1.338 3,3 V 111.2411 c 0,1.662 -1.338,3 -3,3 H 94.092499 c -1.662,0 -3,-1.338 -3,-3 V 97.241104 c 0,-1.662 1.338,-3 3,-3 z m 0,20.108326 H 108.0925 c 1.662,0 3,1.338 3,3 v 14 c 0,1.662 -1.338,3 -3,3 H 94.092499 c -1.662,0 -3,-1.338 -3,-3 v -14 c 0,-1.662 1.338,-3 3,-3 z m -20.108322,0 h 14 c 1.662,0 3,1.338 3,3 v 14 c 0,1.662 -1.338,3 -3,3 h -14 c -1.662,0 -3,-1.338 -3,-3 v -14 c 0,-1.662 1.338,-3 3,-3 z m -20.108334,0 h 14 c 1.662,0 3,1.338 3,3 v 14 c 0,1.662 -1.338,3 -3,3 h -14 c -1.662,0 -3,-1.338 -3,-3 v -14 c 0,-1.662 1.338,-3 3,-3 z m 40.216656,20.10835 H 108.0925 c 1.662,0 3,1.338 3,3 v 14 c 0,1.662 -1.338,3 -3,3 H 94.092499 c -1.662,0 -3,-1.338 -3,-3 v -14 c 0,-1.662 1.338,-3 3,-3 z m -40.216656,0 h 14 c 1.662,0 3,1.338 3,3 v 14 c 0,1.662 -1.338,3 -3,3 h -14 c -1.662,0 -3,-1.338 -3,-3 v -14 c 0,-1.662 1.338,-3 3,-3 z m 40.216656,20.10837 H 108.0925 c 1.662,0 3,1.338 3,3 v 14 c 0,1.662 -1.338,3 -3,3 H 94.092499 c -1.662,0 -3,-1.338 -3,-3 v -14 c 0,-1.662 1.338,-3 3,-3 z" />
      <path
         id="rect1764"
         style="fill:#82c995;fill-opacity:0;stroke:#82c995;stroke-width:0.79375"
         d="m 134.30919,134.45776 h 14 c 1.662,0 3,1.338 3,3 v 14 c 0,1.662 -1.338,3 -3,3 h -14 c -1.662,0 -3,-1.338 -3,-3 v -14 c 0,-1.662 1.338,-3 3,-3 z m 20.10837,20.10837 h 14 c 1.662,0 3,1.338 3,3 v 14 c 0,1.662 -1.338,3 -3,3 h -14 c -1.662,0 -3,-1.338 -3,-3 v -14 c 0,-1.662 1.338,-3 3,-3 z m 20.10836,-20.10837 h 14 c 1.662,0 3,1.338 3,3 v 14 c 0,1.662 -1.338,3 -3,3 h -14 c -1.662,0 -3,-1.338 -3,-3 v -14 c 0,-1.662 1.338,-3 3,-3 z m -40.21679,60.32512 h 14 c 1.662,0 3,1.338 3,3 v 14 c 0,1.662 -1.338,3 -3,3 h -14 c -1.662,0 -3,-1.338 -3,-3 v -14 c 0,-1.662 1.338,-3 3,-3 z m -20.10829,-20.10837 h 14 c 1.662,0 3,1.338 3,3 v 14 c 0,1.662 -1.338,3 -3,3 h -14 c -1.662,0 -3,-1.338 -3,-3 v -14 c 0,-1.662 1.338,-3 3,-3 z m 40.21666,40.21674 h 14 c 1.662,0 3,1.338 3,3 v 14 c 0,1.662 -1.338,3 -3,3 h -14 c -1.662,0 -3,-1.338 -3,-3 v -14 c 0,-1.662 1.338,-3 3,-3 z m 20.10842,-100.54182 h 14 c 1.662,0 3,1.338 3,3 v 14 c 0,1.662 -1.338,3 -3,3 h -14 c -1.662,0 -3,-1.338 -3,-3 v -14 c 0,-1.662 1.338,-3 3,-3 z M 154.41756,94.241104 h 14 c 1.662,0 3,1.338 3,3 V 111.2411 c 0,1.662 -1.338,3 -3,3 h -14 c -1.662,0 -3,-1.338 -3,-3 V 97.241104 c 0,-1.662 1.338,-3 3,-3 z M 134.30919,74.132782 h 14 c 1.662,0 3,1.338 3,3 v 14 c 0,1.662 -1.338,3 -3,3 h -14 c -1.662,0 -3,-1.338 -3,-3 v -14 c 0,-1.662 1.338,-3 3,-3 z m -20.10835,0 h 14 c 1.662,0 3,1.338 3,3 v 14 c 0,1.662 -1.338,3 -3,3 h -14 c -1.662,0 -3,-1.338 -3,-3 v -14 c 0,-1.662 1.338,-3 3,-3 z M 154.4175,194.78288 h 14 c 1.662,0 3,1.338 3,3 v 14 c 0,1.662 -1.338,3 -3,3 h -14 c -1.662,0 -3,-1.338 -3,-3 v -14 c 0,-1.662 1.338,-3 3,-3 z m -20.10837,-20.10837 h 14 c 1.662,0 3,1.338 3,3 v 14 c 0,1.662 -1.338,3 -3,3 h -14 c -1.662,0 -3,-1.338 -3,-3 v -14 c 0,-1.662 1.338,-3 3,-3 z m 6e-5,-80.433406 h 14 c 1.662,0 3,1.338 3,3 V 111.2411 c 0,1.662 -1.338,3 -3,3 h -14 c -1.662,0 -3,-1.338 -3,-3 V 97.241104 c 0,-1.662 1.338,-3 3,-3 z m -20.10835,0 h 14 c 1.662,0 3,1.338 3,3 V 111.2411 c 0,1.662 -1.338,3 -3,3 h -14 c -1.662,0 -3,-1.338 -3,-3 V 97.241104 c 0,-1.662 1.338,-3 3,-3 z m 40.21672,40.216656 h 14 c 1.662,0 3,1.338 3,3 v 14 c 0,1.662 -1.338,3 -3,3 h -14 c -1.662,0 -3,-1.338 -3,-3 v -14 c 0,-1.662 1.338,-3 3,-3 z m 0,-20.10833 h 14 c 1.662,0 3,1.338 3,3 v 14 c 0,1.662 -1.338,3 -3,3 h -14 c -1.662,0 -3,-1.338 -3,-3 v -14 c 0,-1.662 1.338,-3 3,-3 z m -20.10837,0 h 14 c 1.662,0 3,1.338 3,3 v 14 c 0,1.662 -1.338,3 -3,3 h -14 c -1.662,0 -3,-1.338 -3,-3 v -14 c 0,-1.662 1.338,-3 3,-3 z m -20.10835,0 h 14 c 1.662,0 3,1.338 3,3 v 14 c 0,1.662 -1.338,3 -3,3 h -14 c -1.662,0 -3,-1.338 -3,-3 v -14 c 0,-1.662 1.338,-3 3,-3 z m 0,20.10835 h 14 c 1.662,0 3,1.338 3,3 v 14 c 0,1.662 -1.338,3 -3,3 h -14 c -1.662,0 -3,-1.338 -3,-3 v -14 c 0,-1.662 1.338,-3 3,-3 z m 0,20.10837 h 14 c 1.662,0 3,1.338 3,3 v 14 c 0,1.662 -1.338,3 -3,3 h -14 c -1.662,0 -3,-1.338 -3,-3 v -14 c 0,-1.662 1.338,-3 3,-3 z" />
    </g>
  </g>
</svg>
