<svg xmlns="http://www.w3.org/2000/svg"  viewBox="0 0 24 24" width="48px" height="48px"><path fill="#e2e2e2" d="M 12 4 C 8.8176326 4 6.2329513 5.8317127 4.4023438 8.0332031 C 2.5717362 10.234694 1.4212599 12.820114 1.0195312 14.800781 C 0.67152232 16.515093 1.3197277 17.89426 2.0351562 18.708984 C 2.6002826 19.352545 3.1238451 19.654506 3.3652344 19.783203 A 1.0001 1.0001 0 0 0 3.7636719 19.972656 A 1.0001 1.0001 0 0 0 3.8574219 19.990234 A 1.0001 1.0001 0 0 0 3.8964844 19.994141 A 1.0001 1.0001 0 0 0 3.9296875 19.998047 A 1.0001 1.0001 0 0 0 3.9433594 19.998047 A 1.0001 1.0001 0 0 0 3.984375 20 A 1.0001 1.0001 0 0 0 4 20 L 12 20 L 19.974609 20 L 20 20 A 1.0001 1.0001 0 0 0 20.025391 19.998047 A 1.0001 1.0001 0 0 0 20.074219 19.998047 A 1.0001 1.0001 0 0 0 20.099609 19.996094 A 1.0001 1.0001 0 0 0 20.173828 19.986328 A 1.0001 1.0001 0 0 0 20.177734 19.984375 A 1.0001 1.0001 0 0 0 20.636719 19.78125 C 20.879679 19.651505 21.401361 19.350673 21.964844 18.708984 C 22.680272 17.89426 23.328478 16.515093 22.980469 14.800781 C 22.578239 12.820399 21.428122 10.234684 19.597656 8.0332031 C 17.76719 5.8317221 15.182367 4 12 4 z M 12 6 C 14.412633 6 16.469513 7.398981 18.060547 9.3125 C 19.651581 11.226019 20.702761 13.639601 21.019531 15.199219 C 21.239522 16.282907 20.887508 16.902896 20.460938 17.388672 C 20.379168 17.481792 20.371708 17.449582 20.291016 17.523438 C 20.033689 17.11699 19.782408 16.691925 19.287109 16.251953 C 17.969175 15.081236 15.68764 14 12 14 C 8.3123604 14 6.0308255 15.081236 4.7128906 16.251953 C 4.217592 16.691925 3.9663114 17.11699 3.7089844 17.523438 C 3.6282938 17.449579 3.6208349 17.481794 3.5390625 17.388672 C 3.112491 16.902896 2.7604777 16.282907 2.9804688 15.199219 C 3.2967401 13.639886 4.3483107 11.22601 5.9394531 9.3125 C 7.5305956 7.3989905 9.5873674 6 12 6 z M 8.984375 8 A 1.0001 1.0001 0 0 0 8.0292969 8.7578125 L 7.0292969 12.757812 L 8.9707031 13.242188 L 9.5429688 10.957031 L 11.292969 12.707031 A 1.0001 1.0001 0 0 0 12.707031 12.707031 L 14.457031 10.957031 L 15.029297 13.242188 L 16.970703 12.757812 L 15.970703 8.7578125 A 1.0001 1.0001 0 0 0 14.292969 8.2929688 L 12 10.585938 L 9.7070312 8.2929688 A 1.0001 1.0001 0 0 0 8.984375 8 z M 12 16 C 15.30636 16 17.025419 16.918764 17.958984 17.748047 C 18.059747 17.837554 18.118144 17.914912 18.201172 18 L 12 18 L 5.7988281 18 C 5.8818558 17.914912 5.9402526 17.837554 6.0410156 17.748047 C 6.9745808 16.918764 8.6936396 16 12 16 z"/></svg>