<?xml version="1.0" encoding="UTF-8" standalone="no"?>
<!-- Created with Inkscape (http://www.inkscape.org/) -->

<svg
   width="232.57942mm"
   height="45.338406mm"
   viewBox="0 0 232.57942 45.338406"
   version="1.1"
   id="svg5"
   xml:space="preserve"
   xmlns="http://www.w3.org/2000/svg"
   xmlns:svg="http://www.w3.org/2000/svg"><defs
     id="defs2"><rect
       x="36.521957"
       y="367.36792"
       width="573.60956"
       height="390.99979"
       id="rect236" /></defs><g
     id="layer1"
     transform="translate(31.385534,-103.86982)"><g
       aria-label="gameboxd"
       transform="scale(0.26458333)"
       id="text234"
       style="font-style:italic;font-size:48px;font-family:Zapfino;-inkscape-font-specification:'Zapfino Italic';text-align:end;text-anchor:end;white-space:pre;shape-inside:url(#rect236);shape-padding:15.4082;stroke:#1fff09;stroke-width:0;stroke-linejoin:bevel"><g
         id="g17557"><path
           id="path1066"
           style="font-family:'OCR A Std';-inkscape-font-specification:'OCR A Std Italic';fill:#82c995;fill-opacity:1;stroke-width:0"
           d="m 704.44623,422.28044 c -37.71861,5.56653 -43.84462,57.94915 -26.6128,85.38231 19.80666,22.10823 81.82364,22.95184 82.58443,-14.44312 -4.48351,-29.76791 -0.51024,-59.32652 -1.59322,-89.16034 -3.55729,-27.26169 -27.3278,0.53512 -21.04772,16.38034 -5.21588,17.84951 -22.43311,-6.86006 -33.33069,1.84081 z M 689.2014,461.508 c 3.58753,-41.09486 70.39903,-13.57759 51.8962,20.07171 -6.81339,37.13167 -67.49694,21.84969 -52.72382,-14.45253 0.13016,-1.89132 0.5637,-3.74491 0.82762,-5.61918 z m -91.20408,43.31765 c 7.4513,30.982 31.60662,-8.73267 42.25448,-9.59992 9,6.29198 36.91881,31.78611 31.99046,5.9754 -17.18913,-15.86951 -20.5892,-42.82928 1.3832,-55.28318 1.78584,-24.69935 -19.08491,-7.95942 -26.8542,1.32695 -19.32829,12.7564 -38.45107,-34.43682 -45.77141,-6.15863 10.38012,16.71331 29.47218,35.39176 8.61913,53.87067 -3.38268,3.81554 -7.31593,7.13943 -11.62166,9.86871 z M 516.0889,489.20899 c 6.09894,14.51659 17.74296,30.79122 35.25187,30.30551 21.31916,-1.73351 35.94111,-20.7231 44.80782,-38.47975 6.95685,-14.7519 11.66225,-34.10069 1.61467,-48.52217 -12.32791,-13.94882 -33.37927,-10.68345 -49.32343,-6.12782 -20.41652,6.16023 -40.38052,24.62279 -38.59722,47.45437 0.57833,5.57583 2.73359,10.99065 6.24629,15.36986 z m 17.84761,-33.65019 c 9.38708,-6.7536 30.36566,-10.48435 30.17373,6.56077 -0.65399,12.47279 -5.71452,27.37198 -16.86559,33.94638 -13.61808,4.65548 -14.11145,-12.6774 -16.01106,-21.56889 -1.68937,-6.67633 -2.21686,-13.33317 2.70292,-18.93826 z m -95.12518,-57.81883 c -28.45528,-15.6791 -23.60653,31.18076 -17.00667,46.00822 3.05036,24.83972 -15.92222,72.30057 21.40075,75.16196 22.07244,4.90206 52.01026,4.81774 62.03425,-19.8763 12.55135,-24.97461 5.88409,-62.81798 -21.03675,-75.08272 -18.58151,-1.18995 -55.80676,6.63306 -45.39158,-26.21116 z m 0,66.1849 c 5.1554,-37.98285 69.38992,-19.73208 56.07732,16.1718 -6.32756,32.71063 -57.54724,28.43886 -57.97646,-4.98773 -0.25718,-3.80552 0.34627,-7.68872 1.89914,-11.18407 z m -37.86409,58.56248 c 19.6859,-3.37528 0.058,-33.36566 -13.19771,-18.55881 -12.1521,9.20942 -39.58324,2.21294 -33.42283,-15.60176 16.77985,-11.09897 40.47233,8.42015 54.66556,-10.17936 15.58018,-17.65554 0.50831,-45.39058 -18.92591,-52.84927 -22.065,-10.85172 -53.77748,-2.26407 -61.2791,22.85397 -8.83987,22.91946 -5.88409,53.7294 14.59163,69.41458 17.68393,10.00068 38.48346,3.74107 57.56836,4.92065 z m -57.2611,-67.67221 c 5.26718,-20.53315 39.72333,-22.16581 48.60256,-4.14801 2.3487,18.51011 -21.66064,21.34227 -35.07869,18.09762 -6.7673,-1.27009 -14.39007,-6.06927 -13.52387,-13.94961 z m -48.89491,-6.69284 c 26.9872,6.01492 6.49478,39.05129 10.86009,57.20957 4.46573,18.84217 28.42578,11.67252 19.97755,-7.14525 -4.42243,-22.66494 5.7009,-49.35789 -7.8933,-69.17355 -21.32217,-7.70221 -48.73998,-7.61699 -70.31244,-2.26768 -21.28966,18.99884 -1.57134,47.81202 -10.27497,71.21481 -5.93076,17.47967 19.93806,28.71468 20.38119,6.07164 4.06796,-16.41396 -16.18301,-60.03867 12.80693,-55.10156 14.85004,18.50923 -6.67968,41.23232 4.10317,61.09113 12.81822,22.89773 24.26369,-12.98364 16.94808,-25.40686 -1.69201,-12.20529 -2.69589,-25.24802 3.4037,-36.49225 z m -93.65477,-7.99425 c 23.08984,-5.40751 12.44313,36.05175 -6.68786,19.46102 -20.77194,-5.82437 -47.66618,7.59373 -47.18099,31.16319 -0.14873,19.64457 20.86772,39.38005 40.49626,31.01495 20.44141,0.43275 58.47662,-0.39882 47.72855,-31.30281 -1.22466,-23.16534 5.70264,-56.99203 -22.54989,-66.77494 -12.12263,-8.36754 -51.18109,-4.22712 -38.84878,15.31091 8.45612,3.67999 18.17142,1.95684 27.04271,1.12768 z m 4.09008,37.55436 c 25.0238,8.4553 -2.94691,39.34689 -21.13448,30.54308 -24.40924,-4.37496 -16.96468,-40.77579 7.74303,-31.05636 4.43073,0.55255 8.93152,1.16067 13.39145,0.51328 z m -143.52445,5.01963 c -1.38184,8.39535 1.68425,17.90923 9.47791,22.14072 14.9904,8.58181 33.52372,5.71411 48.86214,13.29981 6.30449,2.95086 9.83516,10.91315 7.59922,17.42001 -5.16745,6.43785 -14.38787,6.38881 -21.90671,7.19583 -7.25978,0.76123 -14.97883,-0.0453 -21.82185,2.89718 -5.97847,4.27862 1.0441,10.97438 4.34981,14.68516 4.61173,2.81011 10.51074,3.39697 15.89574,3.5945 17.68853,0.15416 32.98396,-12.67618 40.36926,-28.03887 5.53199,-11.16767 7.74787,-24.10993 5.46576,-36.41812 1.99015,-19.32438 2.36929,-39.78244 -5.50399,-57.94162 -4.51771,-10.66615 -14.41234,-19.23106 -26.17356,-20.38745 -8.50113,-1.1238 -16.95923,0.86782 -25.32083,2.13703 -15.20135,2.98661 -27.89678,15.18286 -31.50832,30.24818 -2.54483,9.51862 -2.181,19.6591 0.21534,29.16764 z M 79.54971,457.0461 c 2.39377,-8.7441 9.89759,-16.69543 19.43066,-16.67962 13.71869,-0.0194 26.4171,9.44921 32.30131,21.5269 4.06242,7.94425 2.71711,18.3655 -4.0618,24.41614 -6.06439,5.32942 -13.16692,10.73511 -21.70398,10.33558 -15.88829,-0.0492 -31.75144,-14.88726 -29.01787,-31.36756 0.49774,-2.90211 1.57247,-5.69067 3.05168,-8.23144 z" /></g><g
         id="layer1-6"
         transform="matrix(0.92838886,0,0,0.92838886,-133.1867,338.56368)"
         class="UnoptimicedTransforms"><path
           class="UnoptimicedTransforms"
           id="rect1764"
           style="fill:#82c995;stroke:#0d9300"
           d="m 134.30919,134.45776 h 14 c 1.662,0 3,1.338 3,3 v 14 c 0,1.662 -1.338,3 -3,3 h -14 c -1.662,0 -3,-1.338 -3,-3 v -14 c 0,-1.662 1.338,-3 3,-3 z m -60.325013,0 h 14 c 1.662,0 3,1.338 3,3 v 14 c 0,1.662 -1.338,3 -3,3 h -14 c -1.662,0 -3,-1.338 -3,-3 v -14 c 0,-1.662 1.338,-3 3,-3 z m 80.433383,20.10837 h 14 c 1.662,0 3,1.338 3,3 v 14 c 0,1.662 -1.338,3 -3,3 h -14 c -1.662,0 -3,-1.338 -3,-3 v -14 c 0,-1.662 1.338,-3 3,-3 z m -100.541717,2e-5 h 14 c 1.662,0 3,1.338 3,3 v 14 c 0,1.662 -1.338,3 -3,3 h -14 c -1.662,0 -3,-1.338 -3,-3 v -14 c 0,-1.662 1.338,-3 3,-3 z M 174.52592,134.45776 h 14 c 1.662,0 3,1.338 3,3 v 14 c 0,1.662 -1.338,3 -3,3 h -14 c -1.662,0 -3,-1.338 -3,-3 v -14 c 0,-1.662 1.338,-3 3,-3 z m -140.758412,2e-5 h 14 c 1.662,0 3,1.338 3,3 v 14 c 0,1.662 -1.338,3 -3,3 h -14 c -1.662,0 -3,-1.338 -3,-3 v -14 c 0,-1.662 1.338,-3 3,-3 z m 100.541622,60.3251 h 14 c 1.662,0 3,1.338 3,3 v 14 c 0,1.662 -1.338,3 -3,3 h -14 c -1.662,0 -3,-1.338 -3,-3 v -14 c 0,-1.662 1.338,-3 3,-3 z m -60.324953,0 h 14 c 1.662,0 3,1.338 3,3 v 14 c 0,1.662 -1.338,3 -3,3 h -14 c -1.662,0 -3,-1.338 -3,-3 v -14 c 0,-1.662 1.338,-3 3,-3 z m 40.216663,-20.10837 h 14 c 1.662,0 3,1.338 3,3 v 14 c 0,1.662 -1.338,3 -3,3 h -14 c -1.662,0 -3,-1.338 -3,-3 v -14 c 0,-1.662 1.338,-3 3,-3 z m -20.108341,0 H 108.0925 c 1.662,0 3,1.338 3,3 v 14 c 0,1.662 -1.338,3 -3,3 H 94.092499 c -1.662,0 -3,-1.338 -3,-3 v -14 c 0,-1.662 1.338,-3 3,-3 z m 60.325001,40.21674 h 14 c 1.662,0 3,1.338 3,3 v 14 c 0,1.662 -1.338,3 -3,3 h -14 c -1.662,0 -3,-1.338 -3,-3 v -14 c 0,-1.662 1.338,-3 3,-3 z m -100.541657,0 h 14 c 1.662,0 3,1.338 3,3 v 14 c 0,1.662 -1.338,3 -3,3 h -14 c -1.662,0 -3,-1.338 -3,-3 v -14 c 0,-1.662 1.338,-3 3,-3 z M 174.52592,114.34943 h 14 c 1.662,0 3,1.338 3,3 v 14 c 0,1.662 -1.338,3 -3,3 h -14 c -1.662,0 -3,-1.338 -3,-3 v -14 c 0,-1.662 1.338,-3 3,-3 z m -140.758412,0 h 14 c 1.662,0 3,1.338 3,3 v 14 c 0,1.662 -1.338,3 -3,3 h -14 c -1.662,0 -3,-1.338 -3,-3 v -14 c 0,-1.662 1.338,-3 3,-3 z M 53.875843,94.241104 h 14 c 1.662,0 3,1.338 3,3 V 111.2411 c 0,1.662 -1.338,3 -3,3 h -14 c -1.662,0 -3,-1.338 -3,-3 V 97.241104 c 0,-1.662 1.338,-3 3,-3 z m 100.541717,0 h 14 c 1.662,0 3,1.338 3,3 V 111.2411 c 0,1.662 -1.338,3 -3,3 h -14 c -1.662,0 -3,-1.338 -3,-3 V 97.241104 c 0,-1.662 1.338,-3 3,-3 z M 134.30919,74.132782 h 14 c 1.662,0 3,1.338 3,3 v 14 c 0,1.662 -1.338,3 -3,3 h -14 c -1.662,0 -3,-1.338 -3,-3 v -14 c 0,-1.662 1.338,-3 3,-3 z m -20.10835,0 h 14 c 1.662,0 3,1.338 3,3 v 14 c 0,1.662 -1.338,3 -3,3 h -14 c -1.662,0 -3,-1.338 -3,-3 v -14 c 0,-1.662 1.338,-3 3,-3 z m -20.108341,0 H 108.0925 c 1.662,0 3,1.338 3,3 v 14 c 0,1.662 -1.338,3 -3,3 H 94.092499 c -1.662,0 -3,-1.338 -3,-3 v -14 c 0,-1.662 1.338,-3 3,-3 z m -20.108322,0 h 14 c 1.662,0 3,1.338 3,3 v 14 c 0,1.662 -1.338,3 -3,3 h -14 c -1.662,0 -3,-1.338 -3,-3 v -14 c 0,-1.662 1.338,-3 3,-3 z M 154.4175,194.78288 h 14 c 1.662,0 3,1.338 3,3 v 14 c 0,1.662 -1.338,3 -3,3 h -14 c -1.662,0 -3,-1.338 -3,-3 v -14 c 0,-1.662 1.338,-3 3,-3 z m -100.541657,0 h 14 c 1.662,0 3,1.338 3,3 v 14 c 0,1.662 -1.338,3 -3,3 h -14 c -1.662,0 -3,-1.338 -3,-3 v -14 c 0,-1.662 1.338,-3 3,-3 z m 80.433287,-20.10837 h 14 c 1.662,0 3,1.338 3,3 v 14 c 0,1.662 -1.338,3 -3,3 h -14 c -1.662,0 -3,-1.338 -3,-3 v -14 c 0,-1.662 1.338,-3 3,-3 z m -60.324953,0 h 14 c 1.662,0 3,1.338 3,3 v 14 c 0,1.662 -1.338,3 -3,3 h -14 c -1.662,0 -3,-1.338 -3,-3 v -14 c 0,-1.662 1.338,-3 3,-3 z M 134.30919,94.241104 h 14 c 1.662,0 3,1.338 3,3 V 111.2411 c 0,1.662 -1.338,3 -3,3 h -14 c -1.662,0 -3,-1.338 -3,-3 V 97.241104 c 0,-1.662 1.338,-3 3,-3 z m -60.325013,0 h 14 c 1.662,0 3,1.338 3,3 V 111.2411 c 0,1.662 -1.338,3 -3,3 h -14 c -1.662,0 -3,-1.338 -3,-3 V 97.241104 c 0,-1.662 1.338,-3 3,-3 z m 40.216663,0 h 14 c 1.662,0 3,1.338 3,3 V 111.2411 c 0,1.662 -1.338,3 -3,3 h -14 c -1.662,0 -3,-1.338 -3,-3 V 97.241104 c 0,-1.662 1.338,-3 3,-3 z m -20.108341,0 H 108.0925 c 1.662,0 3,1.338 3,3 V 111.2411 c 0,1.662 -1.338,3 -3,3 H 94.092499 c -1.662,0 -3,-1.338 -3,-3 V 97.241104 c 0,-1.662 1.338,-3 3,-3 z m 60.325061,40.216656 h 14 c 1.662,0 3,1.338 3,3 v 14 c 0,1.662 -1.338,3 -3,3 h -14 c -1.662,0 -3,-1.338 -3,-3 v -14 c 0,-1.662 1.338,-3 3,-3 z m 0,-20.10833 h 14 c 1.662,0 3,1.338 3,3 v 14 c 0,1.662 -1.338,3 -3,3 h -14 c -1.662,0 -3,-1.338 -3,-3 v -14 c 0,-1.662 1.338,-3 3,-3 z m -20.10837,0 h 14 c 1.662,0 3,1.338 3,3 v 14 c 0,1.662 -1.338,3 -3,3 h -14 c -1.662,0 -3,-1.338 -3,-3 v -14 c 0,-1.662 1.338,-3 3,-3 z m -20.10835,0 h 14 c 1.662,0 3,1.338 3,3 v 14 c 0,1.662 -1.338,3 -3,3 h -14 c -1.662,0 -3,-1.338 -3,-3 v -14 c 0,-1.662 1.338,-3 3,-3 z m -20.108341,0 H 108.0925 c 1.662,0 3,1.338 3,3 v 14 c 0,1.662 -1.338,3 -3,3 H 94.092499 c -1.662,0 -3,-1.338 -3,-3 v -14 c 0,-1.662 1.338,-3 3,-3 z m -20.108322,0 h 14 c 1.662,0 3,1.338 3,3 v 14 c 0,1.662 -1.338,3 -3,3 h -14 c -1.662,0 -3,-1.338 -3,-3 v -14 c 0,-1.662 1.338,-3 3,-3 z m -20.108334,0 h 14 c 1.662,0 3,1.338 3,3 v 14 c 0,1.662 -1.338,3 -3,3 h -14 c -1.662,0 -3,-1.338 -3,-3 v -14 c 0,-1.662 1.338,-3 3,-3 z m 60.324997,20.10835 h 14 c 1.662,0 3,1.338 3,3 v 14 c 0,1.662 -1.338,3 -3,3 h -14 c -1.662,0 -3,-1.338 -3,-3 v -14 c 0,-1.662 1.338,-3 3,-3 z m -20.108341,0 H 108.0925 c 1.662,0 3,1.338 3,3 v 14 c 0,1.662 -1.338,3 -3,3 H 94.092499 c -1.662,0 -3,-1.338 -3,-3 v -14 c 0,-1.662 1.338,-3 3,-3 z m -40.216656,0 h 14 c 1.662,0 3,1.338 3,3 v 14 c 0,1.662 -1.338,3 -3,3 h -14 c -1.662,0 -3,-1.338 -3,-3 v -14 c 0,-1.662 1.338,-3 3,-3 z m 60.324997,20.10837 h 14 c 1.662,0 3,1.338 3,3 v 14 c 0,1.662 -1.338,3 -3,3 h -14 c -1.662,0 -3,-1.338 -3,-3 v -14 c 0,-1.662 1.338,-3 3,-3 z m -20.108341,0 H 108.0925 c 1.662,0 3,1.338 3,3 v 14 c 0,1.662 -1.338,3 -3,3 H 94.092499 c -1.662,0 -3,-1.338 -3,-3 v -14 c 0,-1.662 1.338,-3 3,-3 z" /></g></g></g></svg>
