<?xml version="1.0" encoding="UTF-8" standalone="no"?>
<!-- Created with Inkscape (http://www.inkscape.org/) -->

<svg
   width="161.55215mm"
   height="161.55222mm"
   viewBox="0 0 161.55215 161.55222"
   version="1.1"
   id="svg5"
   sodipodi:docname="biote-empty.svg"
   inkscape:version="1.2.1 (9c6d41e4, 2022-07-14)"
   xmlns:inkscape="http://www.inkscape.org/namespaces/inkscape"
   xmlns:sodipodi="http://sodipodi.sourceforge.net/DTD/sodipodi-0.dtd"
   xmlns="http://www.w3.org/2000/svg"
   xmlns:svg="http://www.w3.org/2000/svg">
  <sodipodi:namedview
     id="namedview16683"
     pagecolor="#ffffff"
     bordercolor="#000000"
     borderopacity="0.25"
     inkscape:showpageshadow="2"
     inkscape:pageopacity="0.0"
     inkscape:pagecheckerboard="0"
     inkscape:deskcolor="#d1d1d1"
     inkscape:document-units="mm"
     showgrid="false"
     inkscape:zoom="0.2102413"
     inkscape:cx="11.891098"
     inkscape:cy="280.62992"
     inkscape:window-width="1280"
     inkscape:window-height="456"
     inkscape:window-x="0"
     inkscape:window-y="25"
     inkscape:window-maximized="0"
     inkscape:current-layer="svg5" />
  <defs
     id="defs2" />
  <g
     id="g16843"
     transform="translate(-30.370633,-73.735907)">
    <g
       id="layer1">
      <path
         id="rect1764"
         style="fill:#82c995;fill-opacity:0;stroke:#82c995;stroke-width:0.79375"
         d="m 134.30919,134.45776 h 14 c 1.662,0 3,1.338 3,3 v 14 c 0,1.662 -1.338,3 -3,3 h -14 c -1.662,0 -3,-1.338 -3,-3 v -14 c 0,-1.662 1.338,-3 3,-3 z m -60.325013,0 h 14 c 1.662,0 3,1.338 3,3 v 14 c 0,1.662 -1.338,3 -3,3 h -14 c -1.662,0 -3,-1.338 -3,-3 v -14 c 0,-1.662 1.338,-3 3,-3 z m 80.433383,20.10837 h 14 c 1.662,0 3,1.338 3,3 v 14 c 0,1.662 -1.338,3 -3,3 h -14 c -1.662,0 -3,-1.338 -3,-3 v -14 c 0,-1.662 1.338,-3 3,-3 z m -100.541717,2e-5 h 14 c 1.662,0 3,1.338 3,3 v 14 c 0,1.662 -1.338,3 -3,3 h -14 c -1.662,0 -3,-1.338 -3,-3 v -14 c 0,-1.662 1.338,-3 3,-3 z M 174.52592,134.45776 h 14 c 1.662,0 3,1.338 3,3 v 14 c 0,1.662 -1.338,3 -3,3 h -14 c -1.662,0 -3,-1.338 -3,-3 v -14 c 0,-1.662 1.338,-3 3,-3 z m -140.758412,2e-5 h 14 c 1.662,0 3,1.338 3,3 v 14 c 0,1.662 -1.338,3 -3,3 h -14 c -1.662,0 -3,-1.338 -3,-3 v -14 c 0,-1.662 1.338,-3 3,-3 z m 100.541622,60.3251 h 14 c 1.662,0 3,1.338 3,3 v 14 c 0,1.662 -1.338,3 -3,3 h -14 c -1.662,0 -3,-1.338 -3,-3 v -14 c 0,-1.662 1.338,-3 3,-3 z m -60.324953,0 h 14 c 1.662,0 3,1.338 3,3 v 14 c 0,1.662 -1.338,3 -3,3 h -14 c -1.662,0 -3,-1.338 -3,-3 v -14 c 0,-1.662 1.338,-3 3,-3 z m 40.216663,-20.10837 h 14 c 1.662,0 3,1.338 3,3 v 14 c 0,1.662 -1.338,3 -3,3 h -14 c -1.662,0 -3,-1.338 -3,-3 v -14 c 0,-1.662 1.338,-3 3,-3 z m -20.108341,0 H 108.0925 c 1.662,0 3,1.338 3,3 v 14 c 0,1.662 -1.338,3 -3,3 H 94.092499 c -1.662,0 -3,-1.338 -3,-3 v -14 c 0,-1.662 1.338,-3 3,-3 z m 60.325001,40.21674 h 14 c 1.662,0 3,1.338 3,3 v 14 c 0,1.662 -1.338,3 -3,3 h -14 c -1.662,0 -3,-1.338 -3,-3 v -14 c 0,-1.662 1.338,-3 3,-3 z m -100.541657,0 h 14 c 1.662,0 3,1.338 3,3 v 14 c 0,1.662 -1.338,3 -3,3 h -14 c -1.662,0 -3,-1.338 -3,-3 v -14 c 0,-1.662 1.338,-3 3,-3 z M 174.52592,114.34943 h 14 c 1.662,0 3,1.338 3,3 v 14 c 0,1.662 -1.338,3 -3,3 h -14 c -1.662,0 -3,-1.338 -3,-3 v -14 c 0,-1.662 1.338,-3 3,-3 z m -140.758412,0 h 14 c 1.662,0 3,1.338 3,3 v 14 c 0,1.662 -1.338,3 -3,3 h -14 c -1.662,0 -3,-1.338 -3,-3 v -14 c 0,-1.662 1.338,-3 3,-3 z M 53.875843,94.241104 h 14 c 1.662,0 3,1.338 3,3 V 111.2411 c 0,1.662 -1.338,3 -3,3 h -14 c -1.662,0 -3,-1.338 -3,-3 V 97.241104 c 0,-1.662 1.338,-3 3,-3 z m 100.541717,0 h 14 c 1.662,0 3,1.338 3,3 V 111.2411 c 0,1.662 -1.338,3 -3,3 h -14 c -1.662,0 -3,-1.338 -3,-3 V 97.241104 c 0,-1.662 1.338,-3 3,-3 z M 134.30919,74.132782 h 14 c 1.662,0 3,1.338 3,3 v 14 c 0,1.662 -1.338,3 -3,3 h -14 c -1.662,0 -3,-1.338 -3,-3 v -14 c 0,-1.662 1.338,-3 3,-3 z m -20.10835,0 h 14 c 1.662,0 3,1.338 3,3 v 14 c 0,1.662 -1.338,3 -3,3 h -14 c -1.662,0 -3,-1.338 -3,-3 v -14 c 0,-1.662 1.338,-3 3,-3 z m -20.108341,0 H 108.0925 c 1.662,0 3,1.338 3,3 v 14 c 0,1.662 -1.338,3 -3,3 H 94.092499 c -1.662,0 -3,-1.338 -3,-3 v -14 c 0,-1.662 1.338,-3 3,-3 z m -20.108322,0 h 14 c 1.662,0 3,1.338 3,3 v 14 c 0,1.662 -1.338,3 -3,3 h -14 c -1.662,0 -3,-1.338 -3,-3 v -14 c 0,-1.662 1.338,-3 3,-3 z M 154.4175,194.78288 h 14 c 1.662,0 3,1.338 3,3 v 14 c 0,1.662 -1.338,3 -3,3 h -14 c -1.662,0 -3,-1.338 -3,-3 v -14 c 0,-1.662 1.338,-3 3,-3 z m -100.541657,0 h 14 c 1.662,0 3,1.338 3,3 v 14 c 0,1.662 -1.338,3 -3,3 h -14 c -1.662,0 -3,-1.338 -3,-3 v -14 c 0,-1.662 1.338,-3 3,-3 z m 80.433287,-20.10837 h 14 c 1.662,0 3,1.338 3,3 v 14 c 0,1.662 -1.338,3 -3,3 h -14 c -1.662,0 -3,-1.338 -3,-3 v -14 c 0,-1.662 1.338,-3 3,-3 z m -60.324953,0 h 14 c 1.662,0 3,1.338 3,3 v 14 c 0,1.662 -1.338,3 -3,3 h -14 c -1.662,0 -3,-1.338 -3,-3 v -14 c 0,-1.662 1.338,-3 3,-3 z M 134.30919,94.241104 h 14 c 1.662,0 3,1.338 3,3 V 111.2411 c 0,1.662 -1.338,3 -3,3 h -14 c -1.662,0 -3,-1.338 -3,-3 V 97.241104 c 0,-1.662 1.338,-3 3,-3 z m -60.325013,0 h 14 c 1.662,0 3,1.338 3,3 V 111.2411 c 0,1.662 -1.338,3 -3,3 h -14 c -1.662,0 -3,-1.338 -3,-3 V 97.241104 c 0,-1.662 1.338,-3 3,-3 z m 40.216663,0 h 14 c 1.662,0 3,1.338 3,3 V 111.2411 c 0,1.662 -1.338,3 -3,3 h -14 c -1.662,0 -3,-1.338 -3,-3 V 97.241104 c 0,-1.662 1.338,-3 3,-3 z m -20.108341,0 H 108.0925 c 1.662,0 3,1.338 3,3 V 111.2411 c 0,1.662 -1.338,3 -3,3 H 94.092499 c -1.662,0 -3,-1.338 -3,-3 V 97.241104 c 0,-1.662 1.338,-3 3,-3 z m 60.325061,40.216656 h 14 c 1.662,0 3,1.338 3,3 v 14 c 0,1.662 -1.338,3 -3,3 h -14 c -1.662,0 -3,-1.338 -3,-3 v -14 c 0,-1.662 1.338,-3 3,-3 z m 0,-20.10833 h 14 c 1.662,0 3,1.338 3,3 v 14 c 0,1.662 -1.338,3 -3,3 h -14 c -1.662,0 -3,-1.338 -3,-3 v -14 c 0,-1.662 1.338,-3 3,-3 z m -20.10837,0 h 14 c 1.662,0 3,1.338 3,3 v 14 c 0,1.662 -1.338,3 -3,3 h -14 c -1.662,0 -3,-1.338 -3,-3 v -14 c 0,-1.662 1.338,-3 3,-3 z m -20.10835,0 h 14 c 1.662,0 3,1.338 3,3 v 14 c 0,1.662 -1.338,3 -3,3 h -14 c -1.662,0 -3,-1.338 -3,-3 v -14 c 0,-1.662 1.338,-3 3,-3 z m -20.108341,0 H 108.0925 c 1.662,0 3,1.338 3,3 v 14 c 0,1.662 -1.338,3 -3,3 H 94.092499 c -1.662,0 -3,-1.338 -3,-3 v -14 c 0,-1.662 1.338,-3 3,-3 z m -20.108322,0 h 14 c 1.662,0 3,1.338 3,3 v 14 c 0,1.662 -1.338,3 -3,3 h -14 c -1.662,0 -3,-1.338 -3,-3 v -14 c 0,-1.662 1.338,-3 3,-3 z m -20.108334,0 h 14 c 1.662,0 3,1.338 3,3 v 14 c 0,1.662 -1.338,3 -3,3 h -14 c -1.662,0 -3,-1.338 -3,-3 v -14 c 0,-1.662 1.338,-3 3,-3 z m 60.324997,20.10835 h 14 c 1.662,0 3,1.338 3,3 v 14 c 0,1.662 -1.338,3 -3,3 h -14 c -1.662,0 -3,-1.338 -3,-3 v -14 c 0,-1.662 1.338,-3 3,-3 z m -20.108341,0 H 108.0925 c 1.662,0 3,1.338 3,3 v 14 c 0,1.662 -1.338,3 -3,3 H 94.092499 c -1.662,0 -3,-1.338 -3,-3 v -14 c 0,-1.662 1.338,-3 3,-3 z m -40.216656,0 h 14 c 1.662,0 3,1.338 3,3 v 14 c 0,1.662 -1.338,3 -3,3 h -14 c -1.662,0 -3,-1.338 -3,-3 v -14 c 0,-1.662 1.338,-3 3,-3 z m 60.324997,20.10837 h 14 c 1.662,0 3,1.338 3,3 v 14 c 0,1.662 -1.338,3 -3,3 h -14 c -1.662,0 -3,-1.338 -3,-3 v -14 c 0,-1.662 1.338,-3 3,-3 z m -20.108341,0 H 108.0925 c 1.662,0 3,1.338 3,3 v 14 c 0,1.662 -1.338,3 -3,3 H 94.092499 c -1.662,0 -3,-1.338 -3,-3 v -14 c 0,-1.662 1.338,-3 3,-3 z" />
    </g>
  </g>
</svg>
