<?xml version="1.0" encoding="UTF-8" standalone="no"?>
<!-- Created with Inkscape (http://www.inkscape.org/) -->

<svg
   width="44.681004mm"
   height="56.563789mm"
   viewBox="0 0 44.681004 56.56379"
   version="1.1"
   id="svg367"
   xml:space="preserve"
   sodipodi:docname="esrb-e10.svg"
   inkscape:version="1.2.1 (9c6d41e4, 2022-07-14)"
   xmlns:inkscape="http://www.inkscape.org/namespaces/inkscape"
   xmlns:sodipodi="http://sodipodi.sourceforge.net/DTD/sodipodi-0.dtd"
   xmlns="http://www.w3.org/2000/svg"
   xmlns:svg="http://www.w3.org/2000/svg"><sodipodi:namedview
     id="namedview10899"
     pagecolor="#ffffff"
     bordercolor="#000000"
     borderopacity="0.25"
     inkscape:showpageshadow="2"
     inkscape:pageopacity="0.0"
     inkscape:pagecheckerboard="0"
     inkscape:deskcolor="#d1d1d1"
     inkscape:document-units="mm"
     showgrid="false"
     inkscape:zoom="1.7439534"
     inkscape:cx="172.30965"
     inkscape:cy="112.38832"
     inkscape:window-width="1920"
     inkscape:window-height="1172"
     inkscape:window-x="0"
     inkscape:window-y="28"
     inkscape:window-maximized="0"
     inkscape:current-layer="text234" /><defs
     id="defs364"><rect
       x="36.521957"
       y="367.36792"
       width="573.60956"
       height="390.99979"
       id="rect236" /></defs><g
     id="layer1"
     transform="translate(-114.8157,-52.492063)"><g
       aria-label="gameboxd"
       transform="matrix(0.26458333,0,0,0.26458333,-30.473968,25.736394)"
       id="text234"
       style="font-style:italic;font-size:48px;font-family:Zapfino;-inkscape-font-specification:'Zapfino Italic';text-align:end;text-anchor:end;white-space:pre;shape-inside:url(#rect236);shape-padding:15.4082;stroke:#1fff09;stroke-width:0;stroke-linejoin:bevel"><rect
         style="fill:#ffffff;stroke:#000000;stroke-width:11.3386;stroke-linecap:square;stroke-linejoin:miter;stroke-miterlimit:10;stroke-dasharray:none;stroke-opacity:1;paint-order:stroke fill markers"
         id="rect3658"
         width="157.53398"
         height="160.24669"
         x="554.79584"
         y="148.9922" /><rect
         style="fill:#ffffff;stroke:#000000;stroke-width:11.3386;stroke-linejoin:miter;stroke-miterlimit:10;stroke-dasharray:none;stroke-opacity:1;paint-order:markers stroke fill"
         id="rect3660"
         width="157.53448"
         height="36.393135"
         x="554.79559"
         y="106.79309" /><g
         aria-label="EVERYONE 10+"
         transform="matrix(0.79708545,0,0,1.2590062,0.49611711,0)"
         id="text666"
         style="font-style:normal;font-weight:bold;font-size:25.6351px;font-family:Helvetica;-inkscape-font-specification:'Helvetica, Bold';stroke:#000000;stroke-miterlimit:0;paint-order:markers stroke fill"><path
           d="m 714.83871,100.48469 h -8.96227 v 4.74399 h 10.21398 v 3.31704 H 702.10878 V 90.095461 h 13.53102 v 3.266973 h -9.76336 v 3.917864 h 8.96227 z"
           id="path12539" /><path
           d="m 717.73017,90.095461 h 4.11813 l 4.00549,14.006679 4.04303,-14.006679 h 4.00549 l -6.29612,18.450259 h -3.64249 z"
           id="path12541" /><path
           d="m 749.03553,100.48469 h -8.96227 v 4.74399 h 10.21398 v 3.31704 H 736.3056 V 90.095461 h 13.53103 v 3.266973 h -9.76337 v 3.917864 h 8.96227 z"
           id="path12543" /><path
           d="m 761.12709,101.31082 h -3.98045 v 7.2349 h -3.76766 V 90.095461 h 9.04989 q 1.94016,0.03755 2.97908,0.475651 1.05144,0.4381 1.77743,1.289265 0.60082,0.70096 0.9513,1.552126 0.35048,0.851165 0.35048,1.940156 0,1.3143 -0.6634,2.591048 -0.66341,1.264231 -2.1905,1.789951 1.27674,0.513202 1.80246,1.464502 0.53824,0.93879 0.53824,2.87894 v 1.2392 q 0,1.26423 0.10014,1.71485 0.1502,0.71348 0.70096,1.05144 v 0.46313 h -4.24331 q -0.17524,-0.61334 -0.25034,-0.98885 -0.15021,-0.77606 -0.16273,-1.58968 l -0.025,-1.71485 q -0.025,-1.76491 -0.65089,-2.35322 -0.61334,-0.5883 -2.31567,-0.5883 z m 2.3407,-3.354596 q 1.15158,-0.52572 1.15158,-2.077845 0,-1.677297 -1.11403,-2.253085 -0.62585,-0.325446 -1.87757,-0.325446 h -4.48113 v 4.956787 h 4.36848 q 1.30178,0 1.95267,-0.300411 z"
           id="path12545" /><path
           d="m 785.76082,90.095461 -6.17095,11.515769 v 6.93449 h -3.85528 v -6.93449 l -6.38374,-11.515769 h 4.54372 l 3.83025,8.036003 3.66752,-8.036003 z"
           id="path12547" /><path
           d="m 796.12501,109.05893 q -3.95542,0 -6.04578,-2.15295 -2.80384,-2.64112 -2.80384,-7.610422 0,-5.069441 2.80384,-7.61042 2.09036,-2.152948 6.04578,-2.152948 3.95542,0 6.04578,2.152948 2.79132,2.540979 2.79132,7.61042 0,4.969302 -2.79132,7.610422 -2.09036,2.15295 -6.04578,2.15295 z m 3.64249,-4.95679 q 1.33933,-1.68981 1.33933,-4.806582 0,-3.104251 -1.35185,-4.794064 -1.33933,-1.702331 -3.62997,-1.702331 -2.29064,0 -3.655,1.689814 -1.36437,1.689813 -1.36437,4.806581 0,3.116772 1.36437,4.806582 1.36436,1.68981 3.655,1.68981 2.29064,0 3.64249,-1.68981 z"
           id="path12549" /><path
           d="m 822.82406,108.54572 h -3.85528 l -7.53532,-13.105441 v 13.105441 h -3.59241 V 90.095461 h 4.04303 l 7.34756,12.880139 V 90.095461 h 3.59242 z"
           id="path12551" /><path
           d="m 839.25906,100.48469 h -8.96227 v 4.74399 h 10.21399 v 3.31704 H 826.52913 V 90.095461 h 13.53103 v 3.266973 h -9.76337 v 3.917864 h 8.96227 z"
           id="path12553" /><path
           d="m 858.38525,108.54572 h -3.655 V 96.028585 H 850.4619 V 93.60026 q 1.68982,-0.0751 2.36574,-0.225309 1.07648,-0.237825 1.7524,-0.951302 0.46314,-0.488169 0.70096,-1.301783 0.13769,-0.488168 0.13769,-0.725994 h 2.96656 z"
           id="path12555" /><path
           d="m 870.00116,108.99634 q -3.46725,0 -4.86917,-2.42832 -1.3894,-2.42833 -1.3894,-6.921982 0,-4.493653 1.3894,-6.934495 1.40192,-2.440842 4.86917,-2.440842 3.46724,0 4.86916,2.440842 1.38941,2.440842 1.38941,6.934495 0,4.493652 -1.40192,6.921982 -1.38941,2.42832 -4.85665,2.42832 z m 2.09036,-4.56876 q 0.48817,-1.65226 0.48817,-4.781542 0,-3.279491 -0.50069,-4.85665 -0.48817,-1.57716 -2.07784,-1.57716 -1.58968,0 -2.10288,1.57716 -0.51321,1.577159 -0.51321,4.85665 0,3.129282 0.51321,4.794062 0.5132,1.65226 2.10288,1.65226 1.58967,0 2.09036,-1.66478 z"
           id="path12557" /><path
           d="m 884.53049,101.38882 v 3.92913 h -2.50816 v -3.92913 h -3.91007 v -2.489092 h 3.91007 v -3.910066 h 2.50816 v 3.910066 h 3.91006 v 2.489092 z"
           id="path12559"
           style="stroke-width:0" /></g></g><path
       id="path1058"
       style="font-style:italic;font-size:48px;font-family:'OCR A Std';-inkscape-font-specification:'OCR A Std Italic';text-align:end;text-anchor:end;white-space:pre;shape-inside:url(#rect236);shape-padding:15.4082;fill:#000000;fill-opacity:1;stroke:#1fff09;stroke-width:0;stroke-linejoin:bevel"
       d="m 631.36068,156.35232 c -0.93455,-0.0104 -1.86458,0.005 -2.78906,0.0508 -34.95681,-1.45654 -71.3103,27.93574 -66.65234,64.94336 0.92384,19.51029 8.06397,40.10869 20.40234,56.00195 0.44055,-2.92385 2.18997,-5.60755 5.82227,-7.44531 9.71865,-4.30689 16.53802,8.11492 14.92187,16.30859 -0.83983,3.71355 -2.30923,5.99016 -4.0918,7.16407 6.51519,4.5639 13.80021,8.01344 21.80274,9.95703 28.76463,2.86443 52.2485,-17.22858 77.77148,-26.65235 23.68981,-15.69863 -19.08569,-43.47031 -27.83984,-16.58203 -10.53172,18.96754 -50.26061,25.61242 -52.4707,-1.11719 15.47125,-24.0849 57.52552,-12.28041 65.32226,-44.64453 9.82738,-30.93377 -23.22795,-57.66217 -52.19922,-57.98437 z m -32.38672,137.02344 c -0.78867,-0.55247 -1.57012,-1.11648 -2.33593,-1.70118 -0.96709,1.16737 -2.22591,1.97035 -3.78321,2.19336 2.14383,0.75108 4.29531,0.70889 6.11914,-0.49218 z m -6.11914,0.49218 c -1.62402,-0.56896 -3.24344,-1.59296 -4.71093,-2.92187 v 2.06836 c 1.79466,0.80673 3.36367,1.04645 4.71093,0.85351 z m -4.71093,-2.92187 v -6.87891 c -2.05059,-2.12689 -3.99637,-4.36678 -5.82227,-6.71875 -0.71906,4.77234 2.05102,10.18257 5.82227,13.59766 z m 0,-6.87891 c 2.65172,2.75041 5.47918,5.30551 8.49414,7.60742 5.09042,-6.14462 2.06294,-22.46108 -8.49414,-18.36132 z m 38.43945,-102.63672 c 7.12086,0.0624 13.97271,2.13522 19.44922,6.72461 13.68698,22.7486 -15.94197,40.22188 -35.27344,43.70313 -9.53933,2.23262 -22.2196,0.36188 -25.61719,-10.39453 -3.70051,-22.31675 20.07884,-40.22033 41.44141,-40.03321 z m -61.55078,88.32618 c -1.05302,-0.0103 -2.09562,0.0852 -3.11133,0.46289 -1.87179,1.00603 -0.68164,3.61328 1.28516,2.81054 1.82056,0.15799 3.98996,1.22528 4.10351,3.29297 0.0479,1.40673 -0.61625,2.74524 -0.40039,4.16992 0.006,4.17413 -0.0101,8.34736 -0.002,12.52149 -1.88849,-0.95753 -4.33731,-0.29961 -5.8418,1.06055 -0.9972,1.46342 1.03396,2.4291 2.26563,2.32421 4.02523,-0.17079 8.07792,0.44335 12.08398,-0.1875 2.31574,-2.07316 2.18591,-5.51248 1.69531,-8.32031 -0.11138,-1.30586 -0.46969,-3.04095 -2.16406,-2.88672 -1.43685,0.35354 -1.1293,2.30997 -1.31445,3.46094 -0.10265,1.42237 0.0888,2.98874 -0.55469,4.28711 -0.72656,0.73046 -1.87754,0.50774 -2.76172,0.26172 V 269.9031 c -1.74304,0.18553 -3.52818,-0.12928 -5.2832,-0.14648 z m 52.52148,5.67968 c 1.08841,-0.0359 1.82015,1.52189 1.59961,2.68946 -0.12049,1.81706 1.52505,3.20349 3.26953,3.16797 1.40718,-0.0675 3.35836,1.4466 2.38868,2.9082 -1.30567,1.03946 -3.29752,0.14781 -4.55079,1.33398 -1.05671,1.39114 -0.0428,3.55884 -1.42773,4.83985 -1.14565,1.27814 -2.76021,-0.42737 -2.66406,-1.72657 -0.1191,-1.54505 -0.5957,-3.6299 -2.38477,-3.95898 -1.16524,-0.16192 -2.97613,0.37783 -3.38476,-1.17578 0.35051,-2.39942 3.7294,-3.53616 5.5957,-2.05469 0.1601,-0.4547 0.12233,-0.95184 0.008,-1.41211 -0.52281,-1.36205 -0.74972,-3.15802 0.56641,-4.16406 0.3476,-0.30352 0.67962,-0.43722 0.98437,-0.44727 z"
       transform="matrix(0.26458333,0,0,0.26458333,-30.473967,25.736394)" /></g></svg>
