<?xml version="1.0" encoding="UTF-8" standalone="no"?>
<!-- Created with Inkscape (http://www.inkscape.org/) -->

<svg
   width="44.681mm"
   height="56.563786mm"
   viewBox="0 0 44.681 56.563786"
   version="1.1"
   id="svg367"
   xml:space="preserve"
   xmlns="http://www.w3.org/2000/svg"
   xmlns:svg="http://www.w3.org/2000/svg"><defs
     id="defs364"><rect
       x="-49.646812"
       y="-51.136215"
       width="243.76585"
       height="278.51862"
       id="rect13327" /><rect
       x="36.521957"
       y="367.36792"
       width="573.60956"
       height="390.99979"
       id="rect236" /></defs><g
     id="layer1"
     transform="translate(-114.8157,-52.492066)"><g
       aria-label="gameboxd"
       transform="matrix(0.26458333,0,0,0.26458333,-30.473968,25.736394)"
       id="text234"
       style="font-style:italic;font-size:48px;font-family:Zapfino;-inkscape-font-specification:'Zapfino Italic';text-align:end;text-anchor:end;white-space:pre;shape-inside:url(#rect236);shape-padding:15.4082;stroke:#1fff09;stroke-width:0;stroke-linejoin:bevel"><rect
         style="fill:#ffffff;stroke:#000000;stroke-width:11.3386;stroke-linecap:square;stroke-linejoin:miter;stroke-miterlimit:10;stroke-dasharray:none;stroke-opacity:1;paint-order:stroke fill markers"
         id="rect3658"
         width="157.53398"
         height="160.24669"
         x="554.79584"
         y="148.9922" /><rect
         style="fill:#ffffff;stroke:#000000;stroke-width:11.3386;stroke-linejoin:miter;stroke-miterlimit:10;stroke-dasharray:none;stroke-opacity:1;paint-order:markers stroke fill"
         id="rect3660"
         width="157.53448"
         height="36.393135"
         x="554.79559"
         y="106.79309" /><text
         xml:space="preserve"
         style="font-style:normal;font-variant:normal;font-weight:bold;font-stretch:normal;font-size:23.4359px;font-family:Helvetica;-inkscape-font-specification:'Helvetica, Bold';font-variant-ligatures:normal;font-variant-caps:normal;font-variant-numeric:normal;font-variant-east-asian:normal;text-align:end;text-anchor:end;fill:#000000;stroke:#000000;stroke-width:0;stroke-linejoin:bevel;stroke-miterlimit:0;stroke-dasharray:none;stroke-opacity:1;paint-order:markers stroke fill"
         x="977.5835"
         y="99.233826"
         id="text666"
         transform="scale(0.72613794,1.3771488)"><tspan
           id="tspan664"
           x="977.5835"
           y="99.233826"
           style="font-style:normal;font-variant:normal;font-weight:bold;font-stretch:normal;font-size:23.4359px;font-family:Helvetica;-inkscape-font-specification:'Helvetica, Bold';font-variant-ligatures:normal;font-variant-caps:normal;font-variant-numeric:normal;font-variant-east-asian:normal;stroke-width:0">ADULTS ONLY 18+</tspan></text><text
         xml:space="preserve"
         transform="translate(549.12631,106.04179)"
         id="text13325"
         style="font-style:normal;font-variant:normal;font-weight:bold;font-stretch:normal;font-size:29.7166px;font-family:Helvetica;-inkscape-font-specification:'Helvetica, Bold';font-variant-ligatures:normal;font-variant-caps:normal;font-variant-numeric:normal;font-variant-east-asian:normal;text-align:end;white-space:pre;shape-inside:url(#rect13327);display:inline;fill:#ffffff;stroke:#000000;stroke-width:11.3386;stroke-linecap:square;stroke-linejoin:miter;stroke-miterlimit:10;stroke-dasharray:none;stroke-opacity:1;paint-order:stroke fill markers" /><path
         id="path1054"
         style="font-style:italic;font-size:48px;font-family:'OCR A Std';-inkscape-font-specification:'OCR A Std Italic';text-align:end;text-anchor:end;white-space:pre;shape-inside:url(#rect236);shape-padding:15.4082;fill:#000000;fill-opacity:1;stroke:#1fff09;stroke-width:0;stroke-linejoin:bevel"
         d="M 620.88217 154.59841 C 598.84972 154.56281 560.79723 175.79333 583.7142 193.59646 C 596.47012 194.40344 608.31766 187.57651 619.48764 182.3113 C 647.02766 164.37262 652.70999 223.42387 619.95248 210.82693 C 590.13501 213.03481 561.41525 243.20717 573.16537 273.69412 C 582.23798 299.36515 618.93552 315.17083 640.56967 295.01052 C 667.41312 285.93217 716.58973 266.90817 688.00522 231.70388 C 686.9798 229.27923 685.99717 226.70535 685.02475 224.07888 C 680.5504 224.16615 675.19404 222.17335 668.95248 217.24294 C 654.82598 210.49074 659.21317 191.29077 668.54623 182.47341 C 660.06219 166.87003 647.96006 155.02854 627.12045 155.31911 C 625.26933 154.8329 623.16139 154.60209 620.88217 154.59841 z M 668.54623 182.47341 C 670.39047 185.86523 672.05093 189.44401 673.60483 193.10622 C 686.39706 182.01273 689.59822 213.41381 681.78452 215.02615 C 682.8576 218.10163 683.94361 221.15876 685.02475 224.07888 C 712.13692 223.55007 706.79228 146.52183 668.806 182.22341 C 668.71813 182.30379 668.63325 182.3912 668.54623 182.47341 z M 681.78452 215.02615 C 679.2528 207.77019 676.65742 200.30054 673.60483 193.10622 C 672.18297 194.33926 670.64448 196.09682 668.98764 198.47927 C 668.85213 200.92975 668.52348 204.83206 671.47397 206.06326 C 675.9711 213.22681 679.39272 215.51969 681.78452 215.02615 z M 642.53256 229.32302 C 679.13208 228.53815 657.25271 281.9885 629.3978 279.09451 C 595.5239 284.90699 588.05531 233.95786 624.8392 234.96951 C 630.87399 233.59959 637.02574 232.27048 642.53256 229.32302 z " /></g></g></svg>
