<?xml version="1.0" encoding="UTF-8" standalone="no"?>
<!-- Created with Inkscape (http://www.inkscape.org/) -->

<svg
   width="44.681mm"
   height="56.563786mm"
   viewBox="0 0 44.681 56.563786"
   version="1.1"
   id="svg367"
   xml:space="preserve"
   xmlns="http://www.w3.org/2000/svg"
   xmlns:svg="http://www.w3.org/2000/svg"><defs
     id="defs364"><rect
       x="-49.646812"
       y="-51.136215"
       width="243.76585"
       height="278.51862"
       id="rect13327" /><rect
       x="36.521957"
       y="367.36792"
       width="573.60956"
       height="390.99979"
       id="rect236" /></defs><g
     id="layer1"
     transform="translate(-114.8157,-52.492066)"><g
       aria-label="gameboxd"
       transform="matrix(0.26458333,0,0,0.26458333,-30.473968,25.736394)"
       id="text234"
       style="font-style:italic;font-size:48px;font-family:Zapfino;-inkscape-font-specification:'Zapfino Italic';text-align:end;text-anchor:end;white-space:pre;shape-inside:url(#rect236);shape-padding:15.4082;stroke:#1fff09;stroke-width:0;stroke-linejoin:bevel"><rect
         style="fill:#ffffff;stroke:#000000;stroke-width:11.3386;stroke-linecap:square;stroke-linejoin:miter;stroke-miterlimit:10;stroke-dasharray:none;stroke-opacity:1;paint-order:stroke fill markers"
         id="rect3658"
         width="157.53398"
         height="160.24669"
         x="554.79584"
         y="148.9922" /><rect
         style="fill:#ffffff;stroke:#000000;stroke-width:11.3386;stroke-linejoin:miter;stroke-miterlimit:10;stroke-dasharray:none;stroke-opacity:1;paint-order:markers stroke fill"
         id="rect3660"
         width="157.53448"
         height="36.393135"
         x="554.79559"
         y="106.79309" /><text
         xml:space="preserve"
         style="font-style:normal;font-variant:normal;font-weight:bold;font-stretch:normal;font-size:42.715px;font-family:Helvetica;-inkscape-font-specification:'Helvetica, Bold';font-variant-ligatures:normal;font-variant-caps:normal;font-variant-numeric:normal;font-variant-east-asian:normal;text-align:end;text-anchor:end;fill:#000000;stroke:#000000;stroke-width:0;stroke-linejoin:bevel;stroke-miterlimit:0;stroke-dasharray:none;stroke-opacity:1;paint-order:markers stroke fill"
         x="536.94122"
         y="180.86674"
         id="text666"
         transform="scale(1.3234823,0.75558245)"><tspan
           id="tspan664"
           x="536.94122"
           y="180.86674"
           style="font-style:normal;font-variant:normal;font-weight:bold;font-stretch:normal;font-size:42.715px;font-family:Helvetica;-inkscape-font-specification:'Helvetica, Bold';font-variant-ligatures:normal;font-variant-caps:normal;font-variant-numeric:normal;font-variant-east-asian:normal;stroke-width:0">TEEN</tspan></text><text
         xml:space="preserve"
         transform="translate(549.12631,106.04179)"
         id="text13325"
         style="font-style:normal;font-variant:normal;font-weight:bold;font-stretch:normal;font-size:29.7166px;font-family:Helvetica;-inkscape-font-specification:'Helvetica, Bold';font-variant-ligatures:normal;font-variant-caps:normal;font-variant-numeric:normal;font-variant-east-asian:normal;text-align:end;white-space:pre;shape-inside:url(#rect13327);fill:#ffffff;stroke:#000000;stroke-width:11.3386;stroke-linecap:square;stroke-linejoin:miter;stroke-miterlimit:10;stroke-dasharray:none;stroke-opacity:1;paint-order:stroke fill markers" /><path
         d="m 608.67414,207.12087 c 13.51694,-4.46239 27.9472,-8.68909 38.61768,-18.56009 6.07407,-4.9876 3.38088,-14.03775 -3.00181,-17.36194 -5.47764,-3.77194 -12.14176,1.48905 -17.55524,3.54 -7.52743,3.44365 -15.706,9.07565 -24.30252,6.1564 -6.49507,-2.71765 -8.23572,-9.82401 -9.46427,-15.97366 -3.2474,-9.92463 -19.6687,-11.58266 -23.4912,-1.3219 -2.68474,6.70875 3.01618,12.0237 4.51285,18.02883 1.53344,10.80515 -8.17941,19.06427 -8.49843,29.52488 1.01388,7.99095 10.28014,10.02096 16.909,10.72226 11.55731,2.89966 16.36652,15.2235 19.11353,25.5861 2.94418,10.63881 4.84112,21.82966 10.63492,31.39506 8.70687,21.37155 37.18613,30.35976 57.1005,19.34666 12.74715,-5.21851 24.32616,-14.69097 30.4948,-27.15808 3.64013,-6.98869 1.98941,-16.28357 -4.6562,-20.87151 -6.45702,-4.90919 -16.51058,-2.10251 -18.77098,6.01691 -3.81787,7.97014 -5.76276,18.99379 -15.4444,21.88924 -7.62398,2.61012 -16.74358,1.63444 -22.5025,-4.41786 -12.39828,-12.47307 -13.93539,-30.90492 -20.92923,-46.26771 -2.90642,-6.76456 -6.09342,-13.41036 -8.76655,-20.27357 z"
         id="path12096"
         style="font-style:normal;font-size:53.3333px;font-family:'OCR A Std';-inkscape-font-specification:'OCR A Std, Normal';text-align:end;text-anchor:end;white-space:pre;shape-inside:url(#rect236);shape-padding:15.4082;fill:#1b1b1b;stroke:#000000;stroke-width:0;stroke-linecap:square;stroke-linejoin:bevel;stroke-miterlimit:10;paint-order:stroke fill markers" /></g></g></svg>
