<?xml version="1.0" encoding="UTF-8" standalone="no"?>
<!-- Created with Inkscape (http://www.inkscape.org/) -->

<svg
   width="210mm"
   height="297mm"
   viewBox="0 0 210 297"
   version="1.1"
   id="svg5"
   xmlns="http://www.w3.org/2000/svg"
   xmlns:svg="http://www.w3.org/2000/svg">
  <defs
     id="defs2" />
  <g
     id="layer1">
    <rect
       rx="3"
       style="fill:#82c995;stroke:#0d9300;stroke-width:0"
       id="rect910"
       width="20"
       height="20"
       x="91.092499"
       y="154.56615" />
    <rect
       rx="3"
       style="fill:#82c995;stroke:#0d9300;stroke-width:0"
       id="rect912"
       width="20"
       height="20"
       x="111.20084"
       y="154.56615" />
    <rect
       rx="3"
       style="fill:#82c995;stroke:#0d9300;stroke-width:0"
       id="rect916"
       width="20"
       height="20"
       x="50.875843"
       y="134.45778" />
    <rect
       rx="3"
       style="fill:#82c995;stroke:#0d9300;stroke-width:0"
       id="rect918"
       width="20"
       height="20"
       x="91.092499"
       y="134.45778" />
    <rect
       rx="3"
       style="fill:#82c995;stroke:#0d9300;stroke-width:0"
       id="rect920"
       width="20"
       height="20"
       x="111.20084"
       y="134.45778" />
    <rect
       rx="3"
       style="fill:#82c995;stroke:#0d9300;stroke-width:0"
       id="rect922"
       width="20"
       height="20"
       x="50.875843"
       y="114.34943" />
    <rect
       rx="3"
       style="fill:#82c995;stroke:#0d9300;stroke-width:0"
       id="rect924"
       width="20"
       height="20"
       x="70.984177"
       y="114.34943" />
    <rect
       rx="3"
       style="fill:#82c995;stroke:#0d9300;stroke-width:0"
       id="rect926"
       width="20"
       height="20"
       x="91.092499"
       y="114.34943" />
    <rect
       rx="3"
       style="fill:#82c995;stroke:#0d9300;stroke-width:0"
       id="rect928"
       width="20"
       height="20"
       x="111.20084"
       y="114.34943" />
    <rect
       rx="3"
       style="fill:#82c995;stroke:#0d9300;stroke-width:0"
       id="rect930"
       width="20"
       height="20"
       x="131.30919"
       y="114.34943" />
    <rect
       rx="3"
       style="fill:#82c995;stroke:#0d9300;stroke-width:0"
       id="rect932"
       width="20"
       height="20"
       x="151.41756"
       y="114.34943" />
    <rect
       rx="3"
       style="fill:#82c995;stroke:#0d9300;stroke-width:0"
       id="rect934"
       width="20"
       height="20"
       x="151.41756"
       y="134.45776" />
    <rect
       rx="3"
       style="fill:#82c995;stroke:#0d9300;stroke-width:0"
       id="rect936"
       width="20"
       height="20"
       x="91.092499"
       y="94.241104" />
    <rect
       rx="3"
       style="fill:#82c995;stroke:#0d9300;stroke-width:0"
       id="rect938"
       width="20"
       height="20"
       x="111.20084"
       y="94.241104" />
    <rect
       rx="3"
       style="fill:#82c995;stroke:#0d9300;stroke-width:0"
       id="rect940"
       width="20"
       height="20"
       x="70.984177"
       y="94.241104" />
    <rect
       rx="3"
       style="fill:#82c995;stroke:#0d9300;stroke-width:0"
       id="rect942"
       width="20"
       height="20"
       x="131.30919"
       y="94.241104" />
    <rect
       rx="3"
       style="fill:#82c995;stroke:#0d9300;stroke-width:0"
       id="rect944"
       width="20"
       height="20"
       x="70.984177"
       y="174.67451" />
    <rect
       rx="3"
       style="fill:#82c995;stroke:#0d9300;stroke-width:0"
       id="rect948"
       width="20"
       height="20"
       x="131.30913"
       y="174.67451" />
    <rect
       rx="3"
       style="fill:#82c995;stroke:#0d9300;stroke-width:0"
       id="rect952"
       width="20"
       height="20"
       x="50.875843"
       y="194.78288" />
    <rect
       rx="3"
       style="fill:#82c995;stroke:#0d9300;stroke-width:0"
       id="rect954"
       width="20"
       height="20"
       x="151.4175"
       y="194.78288" />
    <rect
       rx="3"
       style="fill:#82c995;stroke:#0d9300;stroke-width:0"
       id="rect1726"
       width="20"
       height="20"
       x="70.984177"
       y="74.132782" />
    <rect
       rx="3"
       style="fill:#82c995;stroke:#0d9300;stroke-width:0"
       id="rect1728"
       width="20"
       height="20"
       x="91.092499"
       y="74.132782" />
    <rect
       rx="3"
       style="fill:#82c995;stroke:#0d9300;stroke-width:0"
       id="rect1730"
       width="20"
       height="20"
       x="111.20084"
       y="74.132782" />
    <rect
       rx="3"
       style="fill:#82c995;stroke:#0d9300;stroke-width:0"
       id="rect1732"
       width="20"
       height="20"
       x="131.30919"
       y="74.132782" />
    <rect
       rx="3"
       style="fill:#82c995;stroke:#0d9300;stroke-width:0"
       id="rect1734"
       width="20"
       height="20"
       x="151.41756"
       y="94.241104" />
    <rect
       rx="3"
       style="fill:#82c995;stroke:#0d9300;stroke-width:0"
       id="rect1736"
       width="20"
       height="20"
       x="50.875843"
       y="94.241104" />
    <rect
       rx="3"
       style="fill:#82c995;stroke:#0d9300;stroke-width:0"
       id="rect1738"
       width="20"
       height="20"
       x="30.767508"
       y="114.34943" />
    <rect
       rx="3"
       style="fill:#82c995;stroke:#0d9300;stroke-width:0"
       id="rect1740"
       width="20"
       height="20"
       x="171.52592"
       y="114.34943" />
    <rect
       rx="3"
       style="fill:#82c995;stroke:#0d9300;stroke-width:0"
       id="rect1742"
       width="20"
       height="20"
       x="50.875843"
       y="214.89125" />
    <rect
       rx="3"
       style="fill:#82c995;stroke:#0d9300;stroke-width:0"
       id="rect1744"
       width="20"
       height="20"
       x="151.4175"
       y="214.89125" />
    <rect
       rx="3"
       style="fill:#82c995;stroke:#0d9300;stroke-width:0"
       id="rect1746"
       width="20"
       height="20"
       x="91.092499"
       y="174.67451" />
    <rect
       rx="3"
       style="fill:#82c995;stroke:#0d9300;stroke-width:0"
       id="rect1748"
       width="20"
       height="20"
       x="111.20084"
       y="174.67451" />
    <rect
       rx="3"
       style="fill:#82c995;stroke:#0d9300;stroke-width:0"
       id="rect1750"
       width="20"
       height="20"
       x="70.984177"
       y="194.78288" />
    <rect
       rx="3"
       style="fill:#82c995;stroke:#0d9300;stroke-width:0"
       id="rect1752"
       width="20"
       height="20"
       x="131.30913"
       y="194.78288" />
    <rect
       rx="3"
       style="fill:#82c995;stroke:#0d9300;stroke-width:0"
       id="rect1754"
       width="20"
       height="20"
       x="30.767508"
       y="134.45778" />
    <rect
       rx="3"
       style="fill:#82c995;stroke:#0d9300;stroke-width:0"
       id="rect1756"
       width="20"
       height="20"
       x="171.52592"
       y="134.45776" />
    <rect
       rx="3"
       style="fill:#82c995;stroke:#0d9300;stroke-width:0"
       id="rect1758"
       width="20"
       height="20"
       x="50.875843"
       y="154.56615" />
    <rect
       rx="3"
       style="fill:#82c995;stroke:#0d9300;stroke-width:0"
       id="rect1760"
       width="20"
       height="20"
       x="151.41756"
       y="154.56613" />
    <rect
       rx="3"
       style="fill:#82c995;stroke:#0d9300;stroke-width:0"
       id="rect1762"
       width="20"
       height="20"
       x="70.984177"
       y="134.45776" />
    <rect
       rx="3"
       style="fill:#82c995;stroke:#0d9300;stroke-width:0"
       id="rect1764"
       width="20"
       height="20"
       x="131.30919"
       y="134.45776" />
  </g>
</svg>
