<?xml version="1.0" encoding="UTF-8" standalone="no"?>
<!-- Created with Inkscape (http://www.inkscape.org/) -->

<svg
   width="158.44321mm"
   height="145.76288mm"
   viewBox="0 0 158.44321 145.76288"
   version="1.1"
   id="svg28692"
   xml:space="preserve"
   sodipodi:docname="search.svg"
   inkscape:version="1.2.1 (9c6d41e4, 2022-07-14)"
   xmlns:inkscape="http://www.inkscape.org/namespaces/inkscape"
   xmlns:sodipodi="http://sodipodi.sourceforge.net/DTD/sodipodi-0.dtd"
   xmlns="http://www.w3.org/2000/svg"
   xmlns:svg="http://www.w3.org/2000/svg"><sodipodi:namedview
     id="namedview28694"
     pagecolor="#ffffff"
     bordercolor="#000000"
     borderopacity="0.25"
     inkscape:showpageshadow="2"
     inkscape:pageopacity="0.0"
     inkscape:pagecheckerboard="0"
     inkscape:deskcolor="#d1d1d1"
     inkscape:document-units="mm"
     showgrid="false"
     inkscape:zoom="0.29968659"
     inkscape:cx="-195.20393"
     inkscape:cy="333.68194"
     inkscape:window-width="1280"
     inkscape:window-height="772"
     inkscape:window-x="0"
     inkscape:window-y="28"
     inkscape:window-maximized="0"
     inkscape:current-layer="g32585" /><defs
     id="defs28689" /><g
     inkscape:label="Layer 1"
     inkscape:groupmode="layer"
     id="layer1"
     transform="translate(-22.505084,-97.150043)"><g
       id="g32581"
       transform="rotate(-60.728365,105.00005,174.19499)"><g
         id="g32585"
         transform="rotate(12.124614,114.26043,165.02095)"><path
           id="path28867"
           style="fill:#82c995;stroke:#1fff09;stroke-width:0;stroke-linejoin:bevel"
           d="m 104.99979,87.997213 a 60.50259,60.50259 0 0 0 -60.502248,60.502767 60.50259,60.50259 0 0 0 60.502248,60.50277 60.50259,60.50259 0 0 0 60.50277,-60.50277 60.50259,60.50259 0 0 0 -60.50277,-60.502767 z m 0,17.182417 a 43.320587,43.320587 0 0 1 43.32087,43.32035 43.320587,43.320587 0 0 1 -43.32087,43.32035 43.320587,43.320587 0 0 1 -43.320351,-43.32035 43.320587,43.320587 0 0 1 43.320351,-43.32035 z" /><rect
           style="fill:#82c995;fill-opacity:1;stroke:#1fff09;stroke-width:0;stroke-linejoin:bevel"
           id="rect28981"
           width="20.794157"
           height="77.277977"
           x="91.685623"
           y="194.28352"
           ry="13.663076"
           transform="matrix(0.9994758,0.03237476,0.01625317,0.99986791,0,0)" /></g></g></g></svg>
